:SAMPLES-PER-SECOND 30
:FULLY-SPECIFIED
:DEGREES
92
root  -13.1891 40.9937 -9.48297 -172.372 -82.1458 171.069
RightUpLeg  -4.47137 -8.65416 -7.97705
RightLeg  4.54165 3.35859 2.70121
RightFoot  2.33118 -0.343714 2.99842
RightToes  0.00048216 0.542163 -0.142577
Spine  5.3812 -0.548789 6.11353
Spine1  17.8983 0.265613 -1.99214
HEad  1.92713 -8.81149 0.315537
LeftShoulder1  7.28169 -10.9422 -43.8653
LeftArm  -9.59039 21.64 -31.9117
LeftForeArm  35.3185 -19.1414 -3.3515
LeftHand  -0.25398 0.0180481 5.50724
RightShoulder  4.49695 7.65883 34.3338
RightArm  -29.6321 -10.4711 29.9606
RightForeArm  118.816 73.9152 138.302
RightHand  -1.16522 0.272792 -23.5731
LeftUpLeg  2.53698 6.35292 4.85855
LeftLeg  2.73012 15.0849 -3.55383
LeftFoot  -2.08076 0.143788 -1.62078
LeftToes  1.06246e-005 4.65855e-005 -8.18503e-006
93
root  -13.0564 40.9761 -9.65162 -173.364 -81.3372 171.948
RightUpLeg  -4.79648 -8.47145 -7.56913
RightLeg  4.79293 3.74964 2.75892
RightFoot  2.25938 -0.325166 2.85491
RightToes  0.00048216 0.542163 -0.142577
Spine  6.2511 -0.295353 7.47124
Spine1  18.0272 0.835214 -2.46389
HEad  2.68131 -10.3264 0.245199
LeftShoulder1  7.42328 -11.3493 -43.4745
LeftArm  -9.84571 19.3448 -30.3368
LeftForeArm  35.6278 -22.6993 -3.18938
LeftHand  -0.25398 0.0180481 5.50724
RightShoulder  4.50173 7.8319 33.7666
RightArm  -33.9272 2.49067 30.4734
RightForeArm  128.926 73.5791 140.702
RightHand  -2.35378 4.95552 -26.3957
LeftUpLeg  2.33434 6.60727 5.24309
LeftLeg  3.37758 15.5596 -3.43109
LeftFoot  -2.22666 0.171277 -1.98099
LeftToes  1.06246e-005 4.65855e-005 -8.18503e-006
94
root  -12.9092 40.94 -9.84437 -173.722 -81.2677 172.223
RightUpLeg  -5.19944 -8.37868 -7.19267
RightLeg  5.42282 3.52083 2.84886
RightFoot  1.97792 -0.293575 2.62842
RightToes  0.00048216 0.542163 -0.142577
Spine  6.8652 -0.0887401 8.26731
Spine1  18.3741 1.09945 -2.24447
HEad  3.24492 -11.888 0.429184
LeftShoulder1  7.64007 -11.8264 -43.3462
LeftArm  -12.6797 17.4652 -28.7747
LeftForeArm  37.3772 -27.6554 -3.94113
LeftHand  -0.25398 0.0180481 5.50724
RightShoulder  4.25286 7.64567 32.1932
RightArm  -35.7663 17.0772 29.9442
RightForeArm  94.5138 78.7292 101.795
RightHand  -2.78428 6.40208 -27.3652
LeftUpLeg  1.70047 6.94837 5.60743
LeftLeg  4.56838 15.2051 -3.01005
LeftFoot  -2.52595 0.205813 -2.47502
LeftToes  1.06246e-005 4.65855e-005 -8.18503e-006
95
root  -12.7544 40.8794 -10.0429 -174.711 -81.772 173.074
RightUpLeg  -5.64071 -8.29158 -6.72348
RightLeg  6.45608 2.80601 2.94203
RightFoot  1.51751 -0.243392 2.2503
RightToes  0.00048216 0.542163 -0.142577
Spine  7.55309 0.0752819 9.09143
Spine1  18.6648 1.26845 -1.81824
HEad  3.59594 -13.5094 0.708163
LeftShoulder1  7.85065 -12.2367 -43.3849
LeftArm  -15.5426 15.7595 -27.3192
LeftForeArm  38.7947 -33.7521 -5.28635
LeftHand  -0.25398 0.0180481 5.50724
RightShoulder  3.81062 7.26341 29.4119
RightArm  -36.4766 30.6479 28.5924
RightForeArm  26.1975 70.6415 31.6099
RightHand  -2.24094 4.53802 -25.8838
LeftUpLeg  0.702868 7.84713 5.97928
LeftLeg  6.39743 13.7219 -2.08728
LeftFoot  -3.035 0.238379 -3.03241
LeftToes  1.06246e-005 4.65855e-005 -8.18503e-006
96
root  -12.6133 40.8099 -10.2568 -176.029 -82.9131 174.369
RightUpLeg  -6.10136 -8.28763 -6.22927
RightLeg  7.54609 1.57146 3.05379
RightFoot  0.989097 -0.185915 1.78264
RightToes  0.00048216 0.542163 -0.142577
Spine  8.55962 0.254329 10.9229
Spine1  18.5295 1.9262 -2.4214
HEad  2.88232 -15.6414 1.63726
LeftShoulder1  7.97924 -12.5863 -43.1246
LeftArm  -17.2256 13.7079 -26.0012
LeftForeArm  39.7771 -40.3715 -6.98939
LeftHand  -0.25398 0.0180481 5.50724
RightShoulder  3.43523 7.05347 26.4895
RightArm  -37.8194 38.4947 26.5434
RightForeArm  12.3314 58.372 16.5856
RightHand  -0.944037 -0.216126 -21.0149
LeftUpLeg  -0.644297 8.91765 6.2398
LeftLeg  8.35487 11.4868 -0.909603
LeftFoot  -3.49678 0.258781 -3.4666
LeftToes  1.06246e-005 4.65855e-005 -8.18503e-006
97
root  -12.5326 40.7539 -10.5284 -175.674 -85.1238 174.421
RightUpLeg  -6.59152 -8.56745 -5.8957
RightLeg  8.35221 -0.448557 3.27082
RightFoot  0.394063 -0.134399 1.33323
RightToes  0.00048216 0.542163 -0.142577
Spine  9.37097 0.402869 13.4033
Spine1  17.9495 2.83996 -3.7319
HEad  0.58219 -18.0668 3.23491
LeftShoulder1  8.07124 -12.9774 -42.553
LeftArm  -18.265 11.5943 -25.0543
LeftForeArm  41.6792 -47.1383 -9.07634
LeftHand  -0.25398 0.0180481 5.50724
RightShoulder  3.34491 7.1392 25.3245
RightArm  -40.3764 39.5985 24.7287
RightForeArm  15.6676 60.8885 19.5721
RightHand  -0.404122 -2.83157 -18.2013
LeftUpLeg  -2.3891 9.39346 6.34243
LeftLeg  9.77265 8.87539 -0.0101311
LeftFoot  -3.63036 0.277148 -3.78791
LeftToes  1.06246e-005 4.65855e-005 -8.18503e-006
98
root  -12.5459 40.7192 -10.8799 -175.887 -88.3966 175.39
RightUpLeg  -6.95199 -9.08259 -5.69459
RightLeg  8.82195 -3.23227 3.57805
RightFoot  -0.305123 -0.0945757 0.957061
RightToes  0.00048216 0.542163 -0.142577
Spine  9.42135 0.457939 15.1055
Spine1  17.2029 3.13919 -4.06687
HEad  -2.41484 -19.6642 4.4732
LeftShoulder1  8.17336 -13.335 -42.1497
LeftArm  -19.5028 10.4279 -24.8124
LeftForeArm  45.3103 -54.011 -11.7434
LeftHand  -0.25398 0.0180481 5.50724
RightShoulder  3.53842 7.36284 26.5005
RightArm  -42.5464 38.6414 24.3186
RightForeArm  34.6881 73.0992 38.0696
RightHand  -0.715128 -1.4206 -20.3475
LeftUpLeg  -4.21803 9.03735 6.52058
LeftLeg  10.3961 6.07507 0.28936
LeftFoot  -3.47757 0.312366 -4.23936
LeftToes  1.06246e-005 4.65855e-005 -8.18503e-006
99
root  -12.6329 40.7038 -11.2788 -2.06374 -88.2267 2.12091
RightUpLeg  -6.88777 -9.46898 -5.38849
RightLeg  9.05966 -6.12877 3.82394
RightFoot  -0.9802 -0.0615147 0.604815
RightToes  0.00048216 0.542163 -0.142577
Spine  8.97326 0.482905 15.4115
Spine1  16.6022 2.71394 -2.93499
HEad  -4.76749 -19.7998 4.68999
LeftShoulder1  8.22695 -13.4601 -42.1113
LeftArm  -20.9355 10.4981 -25.3394
LeftForeArm  50.0859 -60.5928 -15.2439
LeftHand  -0.25398 0.0180481 5.50724
RightShoulder  3.82987 7.68709 28.2216
RightArm  -42.7086 39.9999 25.0258
RightForeArm  87.2203 80.0874 87.3605
RightHand  -1.54787 2.15764 -23.7682
LeftUpLeg  -5.38993 8.29219 7.0614
LeftLeg  10.3203 3.51044 0.112389
LeftFoot  -3.25181 0.367924 -4.92566
LeftToes  1.06246e-005 4.65855e-005 -8.18503e-006
100
root  -12.7432 40.7058 -11.6643 4.75412 -85.8194 -4.7444
RightUpLeg  -6.31447 -9.51253 -4.88671
RightLeg  9.17123 -8.3591 3.91493
RightFoot  -1.46423 -0.0260722 0.186613
RightToes  0.00048216 0.542163 -0.142577
Spine  8.59702 0.643079 15.1432
Spine1  16.3386 2.41151 -1.74302
HEad  -6.12446 -19.1841 4.45332
LeftShoulder1  8.21199 -13.3834 -42.2337
LeftArm  -21.8315 10.9218 -26.2497
LeftForeArm  54.756 -65.8453 -19.3109
LeftHand  -0.25398 0.0180481 5.50724
RightShoulder  3.96885 8.08293 28.2632
RightArm  -41.7924 43.7658 26.0444
RightForeArm  109.375 79.8174 105.35
RightHand  -2.36986 5.23359 -25.8754
LeftUpLeg  -5.45792 7.63464 7.90249
LeftLeg  9.78023 1.73955 -0.152369
LeftFoot  -3.05399 0.427367 -5.64442
LeftToes  1.06246e-005 4.65855e-005 -8.18503e-006
101
root  -12.8521 40.7079 -11.9999 5.39786 -84.4416 -5.90782
RightUpLeg  -5.50593 -9.40601 -4.37438
RightLeg  9.39319 -9.75109 3.88263
RightFoot  -1.87708 0.0109678 -0.286873
RightToes  0.00048216 0.542163 -0.142577
Spine  8.36772 1.02019 15.2929
Spine1  16.3705 2.83893 -1.78808
HEad  -6.80957 -18.9548 4.52459
LeftShoulder1  8.20326 -13.345 -42.2884
LeftArm  -21.6954 10.9315 -27.0312
LeftForeArm  58.2531 -68.8979 -22.636
LeftHand  -0.25398 0.0180481 5.50724
RightShoulder  3.73114 8.11169 26.0357
RightArm  -41.5451 48.4579 26.3719
RightForeArm  66.4403 78.3096 61.1134
RightHand  -2.67096 6.31753 -26.4883
LeftUpLeg  -4.79826 7.09111 8.68994
LeftLeg  9.20289 0.826666 -0.226474
LeftFoot  -2.91581 0.47292 -6.18023
LeftToes  1.06246e-005 4.65855e-005 -8.18503e-006
102
root  -12.964 40.6914 -12.2814 5.21536 -83.4014 -6.37836
RightUpLeg  -4.69845 -9.41238 -4.00206
RightLeg  9.81535 -10.7491 3.82948
RightFoot  -2.39958 0.0412403 -0.736129
RightToes  0.00048216 0.542163 -0.142577
Spine  8.19483 1.47651 16.1227
Spine1  16.3226 3.83339 -3.08128
HEad  -7.19327 -19.6029 4.94376
LeftShoulder1  8.22684 -13.4665 -42.094
LeftArm  -20.6215 10.6121 -27.5399
LeftForeArm  59.944 -69.7069 -23.6463
LeftHand  -0.25398 0.0180481 5.50724
RightShoulder  3.11984 7.3075 22.5905
RightArm  -41.5731 52.9542 25.4789
RightForeArm  28.4335 66.4781 23.6667
RightHand  -1.95309 3.91485 -24.0527
LeftUpLeg  -4.15047 6.48653 9.24286
LeftLeg  9.04316 0.251011 -0.0928579
LeftFoot  -2.89128 0.500041 -6.53198
LeftToes  1.06246e-005 4.65855e-005 -8.18503e-006
103
root  -13.0906 40.6577 -12.5232 4.91794 -82.1216 -6.6201
RightUpLeg  -3.97436 -9.55484 -3.71204
RightLeg  10.2836 -11.8512 3.81026
RightFoot  -3.01477 0.0611559 -1.12078
RightToes  0.00048216 0.542163 -0.142577
Spine  8.21518 1.83531 17.4662
Spine1  15.8332 5.01057 -5.13947
HEad  -8.08617 -20.8478 5.19489
LeftShoulder1  8.25329 -13.6757 -41.6872
LeftArm  -18.936 10.3522 -27.7864
LeftForeArm  59.9455 -68.7493 -22.2533
LeftHand  -0.25398 0.0180481 5.50724
RightShoulder  2.48496 6.08495 19.4934
RightArm  -40.7026 55.1146 24.1448
RightForeArm  20.5175 55.6676 14.2959
RightHand  -0.616098 -1.55126 -18.102
LeftUpLeg  -3.95671 5.67455 9.65312
LeftLeg  9.41089 -0.32354 0.11069
LeftFoot  -2.9864 0.51195 -6.77263
LeftToes  1.06246e-005 4.65855e-005 -8.18503e-006
